<?xml version="1.0" encoding="UTF-8" standalone="no"?>
<!DOCTYPE svg PUBLIC "-//W3C//DTD SVG 1.1//EN"
 "http://www.w3.org/Graphics/SVG/1.1/DTD/svg11.dtd">
<!-- Generated by graphviz version 2.38.0 (20140413.2041)
 -->
<!-- Title: controllers_diagram Pages: 1 -->
<svg width="522pt" height="506pt"
 viewBox="0.00 0.00 521.55 506.21" xmlns="http://www.w3.org/2000/svg" xmlns:xlink="http://www.w3.org/1999/xlink">
<g id="graph0" class="graph" transform="scale(1 1) rotate(0) translate(173.862 230.027)">
<title>controllers_diagram</title>
<polygon fill="none" stroke="none" points="-173.862,276.185 -173.862,-230.027 347.688,-230.027 347.688,276.185 -173.862,276.185"/>
<!-- _diagram_info -->
<g id="node1" class="node"><title>_diagram_info</title>
<text text-anchor="start" x="144.312" y="110.9" font-family="Times,serif" font-size="13.00">Controllers diagram</text>
<text text-anchor="start" x="144.312" y="123.9" font-family="Times,serif" font-size="13.00">Date: Aug 17 2015 &#45; 14:48</text>
<text text-anchor="start" x="144.312" y="136.9" font-family="Times,serif" font-size="13.00">Migration version: 20150817212336</text>
<text text-anchor="start" x="144.312" y="149.9" font-family="Times,serif" font-size="13.00">Generated by RailRoady 1.3.1</text>
<text text-anchor="start" x="144.312" y="162.9" font-family="Times,serif" font-size="13.00">http://railroady.prestonlee.com</text>
</g>
<!-- ApplicationController -->
<g id="node2" class="node"><title>ApplicationController</title>
<path fill="none" stroke="black" d="M-157.862,119.852C-157.862,119.852 -42.2206,119.852 -42.2206,119.852 -36.2206,119.852 -30.2206,113.852 -30.2206,107.852 -30.2206,107.852 -30.2206,39.8523 -30.2206,39.8523 -30.2206,33.8523 -36.2206,27.8523 -42.2206,27.8523 -42.2206,27.8523 -157.862,27.8523 -157.862,27.8523 -163.862,27.8523 -169.862,33.8523 -169.862,39.8523 -169.862,39.8523 -169.862,107.852 -169.862,107.852 -169.862,113.852 -163.862,119.852 -157.862,119.852"/>
<text text-anchor="middle" x="-100.041" y="43.0523" font-family="Times,serif" font-size="14.00">ApplicationController</text>
<polyline fill="none" stroke="black" points="-169.862,49.8523 -30.2206,49.8523 "/>
<polyline fill="none" stroke="black" points="-169.862,73.8523 -30.2206,73.8523 "/>
<polyline fill="none" stroke="black" points="-169.862,97.8523 -30.2206,97.8523 "/>
<text text-anchor="start" x="-161.862" y="113.052" font-family="Times,serif" font-size="14.00">_layout</text>
</g>
<!-- CommentsController -->
<g id="node3" class="node"><title>CommentsController</title>
<path fill="none" stroke="black" d="M33.4355,42.2555C33.4355,42.2555 143.649,42.2555 143.649,42.2555 149.649,42.2555 155.649,36.2555 155.649,30.2555 155.649,30.2555 155.649,-147.744 155.649,-147.744 155.649,-153.744 149.649,-159.744 143.649,-159.744 143.649,-159.744 33.4355,-159.744 33.4355,-159.744 27.4355,-159.744 21.4355,-153.744 21.4355,-147.744 21.4355,-147.744 21.4355,30.2555 21.4355,30.2555 21.4355,36.2555 27.4355,42.2555 33.4355,42.2555"/>
<text text-anchor="middle" x="88.5425" y="-144.544" font-family="Times,serif" font-size="14.00">CommentsController</text>
<polyline fill="none" stroke="black" points="21.4355,-137.744 155.649,-137.744 "/>
<text text-anchor="start" x="29.4355" y="-122.544" font-family="Times,serif" font-size="14.00">create</text>
<text text-anchor="start" x="29.4355" y="-108.544" font-family="Times,serif" font-size="14.00">destroy</text>
<text text-anchor="start" x="29.4355" y="-94.5445" font-family="Times,serif" font-size="14.00">edit</text>
<text text-anchor="start" x="29.4355" y="-80.5445" font-family="Times,serif" font-size="14.00">index</text>
<text text-anchor="start" x="29.4355" y="-66.5445" font-family="Times,serif" font-size="14.00">new</text>
<text text-anchor="start" x="29.4355" y="-52.5445" font-family="Times,serif" font-size="14.00">show</text>
<text text-anchor="start" x="29.4355" y="-38.5445" font-family="Times,serif" font-size="14.00">update</text>
<polyline fill="none" stroke="black" points="21.4355,-31.7445 155.649,-31.7445 "/>
<polyline fill="none" stroke="black" points="21.4355,-7.7445 155.649,-7.7445 "/>
<text text-anchor="start" x="29.4355" y="7.4555" font-family="Times,serif" font-size="14.00">_layout</text>
<text text-anchor="start" x="29.4355" y="21.4555" font-family="Times,serif" font-size="14.00">comment_params</text>
<text text-anchor="start" x="29.4355" y="35.4555" font-family="Times,serif" font-size="14.00">set_comment</text>
</g>
<!-- ApplicationController&#45;&gt;CommentsController -->
<g id="edge1" class="edge"><title>ApplicationController&#45;&gt;CommentsController</title>
<path fill="none" stroke="black" d="M-34.6132,27.8485C-16.5282,15.1327 3.12442,1.31452 21.31,-11.4721"/>
</g>
<!-- PostsController -->
<g id="node4" class="node"><title>PostsController</title>
<path fill="none" stroke="black" d="M-5.86714,271.685C-5.86714,271.685 73.25,271.685 73.25,271.685 79.25,271.685 85.25,265.685 85.25,259.685 85.25,259.685 85.25,81.6855 85.25,81.6855 85.25,75.6855 79.25,69.6855 73.25,69.6855 73.25,69.6855 -5.86714,69.6855 -5.86714,69.6855 -11.8671,69.6855 -17.8671,75.6855 -17.8671,81.6855 -17.8671,81.6855 -17.8671,259.685 -17.8671,259.685 -17.8671,265.685 -11.8671,271.685 -5.86714,271.685"/>
<text text-anchor="middle" x="33.6915" y="84.8855" font-family="Times,serif" font-size="14.00">PostsController</text>
<polyline fill="none" stroke="black" points="-17.8671,91.6855 85.25,91.6855 "/>
<text text-anchor="start" x="-9.86714" y="106.885" font-family="Times,serif" font-size="14.00">create</text>
<text text-anchor="start" x="-9.86714" y="120.885" font-family="Times,serif" font-size="14.00">destroy</text>
<text text-anchor="start" x="-9.86714" y="134.885" font-family="Times,serif" font-size="14.00">edit</text>
<text text-anchor="start" x="-9.86714" y="148.885" font-family="Times,serif" font-size="14.00">index</text>
<text text-anchor="start" x="-9.86714" y="162.885" font-family="Times,serif" font-size="14.00">new</text>
<text text-anchor="start" x="-9.86714" y="176.885" font-family="Times,serif" font-size="14.00">show</text>
<text text-anchor="start" x="-9.86714" y="190.885" font-family="Times,serif" font-size="14.00">update</text>
<polyline fill="none" stroke="black" points="-17.8671,197.685 85.25,197.685 "/>
<polyline fill="none" stroke="black" points="-17.8671,221.685 85.25,221.685 "/>
<text text-anchor="start" x="-9.86714" y="236.885" font-family="Times,serif" font-size="14.00">_layout</text>
<text text-anchor="start" x="-9.86714" y="250.885" font-family="Times,serif" font-size="14.00">post_params</text>
<text text-anchor="start" x="-9.86714" y="264.885" font-family="Times,serif" font-size="14.00">set_post</text>
</g>
<!-- ApplicationController&#45;&gt;PostsController -->
<g id="edge2" class="edge"><title>ApplicationController&#45;&gt;PostsController</title>
<path fill="none" stroke="black" d="M-36.3083,120C-30.2536,124.384 -24.1646,128.793 -18.2405,133.083"/>
</g>
<!-- UsersController -->
<g id="node5" class="node"><title>UsersController</title>
<path fill="none" stroke="black" d="M-112.45,-23.5268C-112.45,-23.5268 -31.0218,-23.5268 -31.0218,-23.5268 -25.0218,-23.5268 -19.0218,-29.5268 -19.0218,-35.5268 -19.0218,-35.5268 -19.0218,-213.527 -19.0218,-213.527 -19.0218,-219.527 -25.0218,-225.527 -31.0218,-225.527 -31.0218,-225.527 -112.45,-225.527 -112.45,-225.527 -118.45,-225.527 -124.45,-219.527 -124.45,-213.527 -124.45,-213.527 -124.45,-35.5268 -124.45,-35.5268 -124.45,-29.5268 -118.45,-23.5268 -112.45,-23.5268"/>
<text text-anchor="middle" x="-71.7357" y="-210.327" font-family="Times,serif" font-size="14.00">UsersController</text>
<polyline fill="none" stroke="black" points="-124.45,-203.527 -19.0218,-203.527 "/>
<text text-anchor="start" x="-116.45" y="-188.327" font-family="Times,serif" font-size="14.00">create</text>
<text text-anchor="start" x="-116.45" y="-174.327" font-family="Times,serif" font-size="14.00">destroy</text>
<text text-anchor="start" x="-116.45" y="-160.327" font-family="Times,serif" font-size="14.00">edit</text>
<text text-anchor="start" x="-116.45" y="-146.327" font-family="Times,serif" font-size="14.00">index</text>
<text text-anchor="start" x="-116.45" y="-132.327" font-family="Times,serif" font-size="14.00">new</text>
<text text-anchor="start" x="-116.45" y="-118.327" font-family="Times,serif" font-size="14.00">show</text>
<text text-anchor="start" x="-116.45" y="-104.327" font-family="Times,serif" font-size="14.00">update</text>
<polyline fill="none" stroke="black" points="-124.45,-97.5268 -19.0218,-97.5268 "/>
<polyline fill="none" stroke="black" points="-124.45,-73.5268 -19.0218,-73.5268 "/>
<text text-anchor="start" x="-116.45" y="-58.3268" font-family="Times,serif" font-size="14.00">_layout</text>
<text text-anchor="start" x="-116.45" y="-44.3268" font-family="Times,serif" font-size="14.00">set_user</text>
<text text-anchor="start" x="-116.45" y="-30.3268" font-family="Times,serif" font-size="14.00">user_params</text>
</g>
<!-- ApplicationController&#45;&gt;UsersController -->
<g id="edge3" class="edge"><title>ApplicationController&#45;&gt;UsersController</title>
<path fill="none" stroke="black" d="M-93.4763,27.8415C-91.2716,12.3895 -88.718,-5.50707 -86.1529,-23.4848"/>
</g>
</g>
</svg>
