<?xml version="1.0" encoding="UTF-8" standalone="no"?>
<!DOCTYPE svg PUBLIC "-//W3C//DTD SVG 1.1//EN"
 "http://www.w3.org/Graphics/SVG/1.1/DTD/svg11.dtd">
<!-- Generated by graphviz version 2.38.0 (20140413.2041)
 -->
<!-- Title: models_diagram Pages: 1 -->
<svg width="476pt" height="506pt"
 viewBox="0.00 0.00 476.19 506.00" xmlns="http://www.w3.org/2000/svg" xmlns:xlink="http://www.w3.org/1999/xlink">
<g id="graph0" class="graph" transform="scale(1 1) rotate(0) translate(4 502)">
<title>models_diagram</title>
<polygon fill="none" stroke="none" points="-4,4 -4,-502 472.193,-502 472.193,4 -4,4"/>
<!-- _diagram_info -->
<g id="node1" class="node"><title>_diagram_info</title>
<text text-anchor="start" x="8" y="-483.6" font-family="Times,serif" font-size="13.00">Models diagram</text>
<text text-anchor="start" x="8" y="-470.6" font-family="Times,serif" font-size="13.00">Date: Aug 17 2015 &#45; 14:48</text>
<text text-anchor="start" x="8" y="-457.6" font-family="Times,serif" font-size="13.00">Migration version: 20150817212336</text>
<text text-anchor="start" x="8" y="-444.6" font-family="Times,serif" font-size="13.00">Generated by RailRoady 1.3.1</text>
<text text-anchor="start" x="8" y="-431.6" font-family="Times,serif" font-size="13.00">http://railroady.prestonlee.com</text>
</g>
<!-- Comment -->
<g id="node2" class="node"><title>Comment</title>
<path fill="none" stroke="black" d="M261.182,-0.5C261.182,-0.5 370.193,-0.5 370.193,-0.5 376.193,-0.5 382.193,-6.5 382.193,-12.5 382.193,-12.5 382.193,-88.5 382.193,-88.5 382.193,-94.5 376.193,-100.5 370.193,-100.5 370.193,-100.5 261.182,-100.5 261.182,-100.5 255.182,-100.5 249.182,-94.5 249.182,-88.5 249.182,-88.5 249.182,-12.5 249.182,-12.5 249.182,-6.5 255.182,-0.5 261.182,-0.5"/>
<text text-anchor="middle" x="315.688" y="-85.3" font-family="Times,serif" font-size="14.00">Comment</text>
<polyline fill="none" stroke="black" points="249.182,-78.5 382.193,-78.5 "/>
<text text-anchor="start" x="257.182" y="-63.3" font-family="Times,serif" font-size="14.00">id :integer</text>
<text text-anchor="start" x="257.182" y="-49.3" font-family="Times,serif" font-size="14.00">com :string</text>
<text text-anchor="start" x="257.182" y="-35.3" font-family="Times,serif" font-size="14.00">body :text</text>
<text text-anchor="start" x="257.182" y="-21.3" font-family="Times,serif" font-size="14.00">created_at :datetime</text>
<text text-anchor="start" x="257.182" y="-7.3" font-family="Times,serif" font-size="14.00">updated_at :datetime</text>
</g>
<!-- Post -->
<g id="node3" class="node"><title>Post</title>
<path fill="none" stroke="black" d="M309.182,-137.5C309.182,-137.5 418.193,-137.5 418.193,-137.5 424.193,-137.5 430.193,-143.5 430.193,-149.5 430.193,-149.5 430.193,-225.5 430.193,-225.5 430.193,-231.5 424.193,-237.5 418.193,-237.5 418.193,-237.5 309.182,-237.5 309.182,-237.5 303.182,-237.5 297.182,-231.5 297.182,-225.5 297.182,-225.5 297.182,-149.5 297.182,-149.5 297.182,-143.5 303.182,-137.5 309.182,-137.5"/>
<text text-anchor="middle" x="363.688" y="-222.3" font-family="Times,serif" font-size="14.00">Post</text>
<polyline fill="none" stroke="black" points="297.182,-215.5 430.193,-215.5 "/>
<text text-anchor="start" x="305.182" y="-200.3" font-family="Times,serif" font-size="14.00">id :integer</text>
<text text-anchor="start" x="305.182" y="-186.3" font-family="Times,serif" font-size="14.00">title :string</text>
<text text-anchor="start" x="305.182" y="-172.3" font-family="Times,serif" font-size="14.00">description :string</text>
<text text-anchor="start" x="305.182" y="-158.3" font-family="Times,serif" font-size="14.00">created_at :datetime</text>
<text text-anchor="start" x="305.182" y="-144.3" font-family="Times,serif" font-size="14.00">updated_at :datetime</text>
</g>
<!-- Post&#45;&gt;Comment -->
<g id="edge2" class="edge"><title>Post&#45;&gt;Comment</title>
<path fill="none" stroke="#e29b08" d="M343.509,-129.747C341.265,-123.436 338.976,-116.997 336.721,-110.657"/>
<ellipse fill="none" stroke="#e29b08" cx="344.883" cy="-133.611" rx="4.00001" ry="4.00001"/>
<polygon fill="#e29b08" stroke="#e29b08" points="336.57,-110.232 337.46,-99.3021 334.895,-105.521 333.22,-100.81 333.22,-100.81 333.22,-100.81 334.895,-105.521 328.98,-102.317 336.57,-110.232 336.57,-110.232"/>
</g>
<!-- User -->
<g id="node4" class="node"><title>User</title>
<path fill="none" stroke="black" d="M347.182,-274.5C347.182,-274.5 456.193,-274.5 456.193,-274.5 462.193,-274.5 468.193,-280.5 468.193,-286.5 468.193,-286.5 468.193,-376.5 468.193,-376.5 468.193,-382.5 462.193,-388.5 456.193,-388.5 456.193,-388.5 347.182,-388.5 347.182,-388.5 341.182,-388.5 335.182,-382.5 335.182,-376.5 335.182,-376.5 335.182,-286.5 335.182,-286.5 335.182,-280.5 341.182,-274.5 347.182,-274.5"/>
<text text-anchor="middle" x="401.688" y="-373.3" font-family="Times,serif" font-size="14.00">User</text>
<polyline fill="none" stroke="black" points="335.182,-366.5 468.193,-366.5 "/>
<text text-anchor="start" x="343.182" y="-351.3" font-family="Times,serif" font-size="14.00">id :integer</text>
<text text-anchor="start" x="343.182" y="-337.3" font-family="Times,serif" font-size="14.00">first_name :string</text>
<text text-anchor="start" x="343.182" y="-323.3" font-family="Times,serif" font-size="14.00">last_name :string</text>
<text text-anchor="start" x="343.182" y="-309.3" font-family="Times,serif" font-size="14.00">age :integer</text>
<text text-anchor="start" x="343.182" y="-295.3" font-family="Times,serif" font-size="14.00">created_at :datetime</text>
<text text-anchor="start" x="343.182" y="-281.3" font-family="Times,serif" font-size="14.00">updated_at :datetime</text>
</g>
<!-- User&#45;&gt;Post -->
<g id="edge4" class="edge"><title>User&#45;&gt;Post</title>
<path fill="none" stroke="#c21699" d="M384.526,-266.371C382.841,-260.072 381.136,-253.7 379.465,-247.456"/>
<ellipse fill="none" stroke="#c21699" cx="385.635" cy="-270.514" rx="4.00001" ry="4.00001"/>
<polygon fill="#c21699" stroke="#c21699" points="379.46,-247.439 381.222,-236.615 378.168,-242.609 376.875,-237.779 376.875,-237.779 376.875,-237.779 378.168,-242.609 372.528,-238.942 379.46,-247.439 379.46,-247.439"/>
</g>
<!-- ActiveRecord::Base -->
<g id="node5" class="node"><title>ActiveRecord::Base</title>
<ellipse fill="none" stroke="black" cx="306.688" cy="-461.5" rx="81.1422" ry="18"/>
<text text-anchor="middle" x="306.688" y="-457.3" font-family="Times,serif" font-size="14.00">ActiveRecord::Base</text>
</g>
<!-- ActiveRecord::Base&#45;&gt;Comment -->
<g id="edge1" class="edge"><title>ActiveRecord::Base&#45;&gt;Comment</title>
<path fill="none" stroke="black" d="M303.059,-443.185C293.432,-394.575 269.203,-252.837 287.688,-137 289.608,-124.969 292.957,-112.332 296.686,-100.575"/>
</g>
<!-- ActiveRecord::Base&#45;&gt;Post -->
<g id="edge3" class="edge"><title>ActiveRecord::Base&#45;&gt;Post</title>
<path fill="none" stroke="black" d="M306.639,-443.462C306.931,-410.27 309.505,-334.862 325.688,-274 328.902,-261.912 333.62,-249.361 338.647,-237.718"/>
</g>
<!-- ActiveRecord::Base&#45;&gt;User -->
<g id="edge5" class="edge"><title>ActiveRecord::Base&#45;&gt;User</title>
<path fill="none" stroke="black" d="M319.303,-443.503C329.751,-429.426 345.217,-408.587 359.936,-388.755"/>
</g>
</g>
</svg>
