<?xml version="1.0" encoding="UTF-8" standalone="no"?>
<!DOCTYPE svg PUBLIC "-//W3C//DTD SVG 1.1//EN"
 "http://www.w3.org/Graphics/SVG/1.1/DTD/svg11.dtd">
<!-- Generated by graphviz version 2.38.0 (20140413.2041)
 -->
<!-- Title: models_diagram Pages: 1 -->
<svg width="397pt" height="297pt"
 viewBox="0.00 0.00 396.69 297.00" xmlns="http://www.w3.org/2000/svg" xmlns:xlink="http://www.w3.org/1999/xlink">
<g id="graph0" class="graph" transform="scale(1 1) rotate(0) translate(4 293)">
<title>models_diagram</title>
<polygon fill="none" stroke="none" points="-4,4 -4,-293 392.688,-293 392.688,4 -4,4"/>
<!-- _diagram_info -->
<g id="node1" class="node"><title>_diagram_info</title>
<text text-anchor="start" x="8" y="-274.6" font-family="Times,serif" font-size="13.00">Models diagram</text>
<text text-anchor="start" x="8" y="-261.6" font-family="Times,serif" font-size="13.00">Date: Aug 17 2015 &#45; 14:48</text>
<text text-anchor="start" x="8" y="-248.6" font-family="Times,serif" font-size="13.00">Migration version: 20150817212336</text>
<text text-anchor="start" x="8" y="-235.6" font-family="Times,serif" font-size="13.00">Generated by RailRoady 1.3.1</text>
<text text-anchor="start" x="8" y="-222.6" font-family="Times,serif" font-size="13.00">http://railroady.prestonlee.com</text>
</g>
<!-- Comment -->
<g id="node2" class="node"><title>Comment</title>
<ellipse fill="none" stroke="black" cx="295.688" cy="-18" rx="44.9768" ry="18"/>
<text text-anchor="middle" x="295.688" y="-13.8" font-family="Times,serif" font-size="14.00">Comment</text>
</g>
<!-- Post -->
<g id="node3" class="node"><title>Post</title>
<ellipse fill="none" stroke="black" cx="323.688" cy="-90" rx="27" ry="18"/>
<text text-anchor="middle" x="323.688" y="-85.8" font-family="Times,serif" font-size="14.00">Post</text>
</g>
<!-- Post&#45;&gt;Comment -->
<g id="edge2" class="edge"><title>Post&#45;&gt;Comment</title>
<path fill="none" stroke="#d8305a" d="M313.999,-64.7779C311.505,-58.544 308.81,-51.8046 306.273,-45.4634"/>
<ellipse fill="none" stroke="#d8305a" cx="315.567" cy="-68.6971" rx="4.00001" ry="4.00001"/>
<polygon fill="#d8305a" stroke="#d8305a" points="306.184,-45.241 306.648,-34.2849 304.327,-40.5986 302.47,-35.9562 302.47,-35.9562 302.47,-35.9562 304.327,-40.5986 298.292,-37.6275 306.184,-45.241 306.184,-45.241"/>
</g>
<!-- User -->
<g id="node4" class="node"><title>User</title>
<ellipse fill="none" stroke="black" cx="361.688" cy="-162" rx="27" ry="18"/>
<text text-anchor="middle" x="361.688" y="-157.8" font-family="Times,serif" font-size="14.00">User</text>
</g>
<!-- User&#45;&gt;Post -->
<g id="edge4" class="edge"><title>User&#45;&gt;Post</title>
<path fill="none" stroke="#3d9700" d="M348.918,-137.476C345.198,-130.623 341.119,-123.11 337.346,-116.16"/>
<ellipse fill="none" stroke="#3d9700" cx="350.966" cy="-141.249" rx="4.00002" ry="4.00002"/>
<polygon fill="#3d9700" stroke="#3d9700" points="337.224,-115.936 336.408,-105 334.839,-111.542 332.453,-107.147 332.453,-107.147 332.453,-107.147 334.839,-111.542 328.499,-109.294 337.224,-115.936 337.224,-115.936"/>
</g>
<!-- ActiveRecord::Base -->
<g id="node5" class="node"><title>ActiveRecord::Base</title>
<ellipse fill="none" stroke="black" cx="306.688" cy="-252.5" rx="81.1422" ry="18"/>
<text text-anchor="middle" x="306.688" y="-248.3" font-family="Times,serif" font-size="14.00">ActiveRecord::Base</text>
</g>
<!-- ActiveRecord::Base&#45;&gt;Comment -->
<g id="edge1" class="edge"><title>ActiveRecord::Base&#45;&gt;Comment</title>
<path fill="none" stroke="black" d="M302.822,-234.454C296.057,-202.599 283.197,-131.843 287.688,-72 288.593,-59.9366 290.642,-46.4578 292.439,-36.1119"/>
</g>
<!-- ActiveRecord::Base&#45;&gt;Post -->
<g id="edge3" class="edge"><title>ActiveRecord::Base&#45;&gt;Post</title>
<path fill="none" stroke="black" d="M308.507,-234.324C311.779,-203.432 318.619,-138.855 321.882,-108.053"/>
</g>
<!-- ActiveRecord::Base&#45;&gt;User -->
<g id="edge5" class="edge"><title>ActiveRecord::Base&#45;&gt;User</title>
<path fill="none" stroke="black" d="M317.292,-234.436C327.281,-218.363 342.126,-194.477 351.855,-178.822"/>
</g>
</g>
</svg>
